<svg width="16" height="18" viewBox="0 0 16 18" fill="none" xmlns="http://www.w3.org/2000/svg">
<path d="M13.9999 15.75L11.1046 12.4928M11.1046 12.4928C11.5998 11.9356 11.9927 11.2741 12.2607 10.5462C12.5287 9.81819 12.6667 9.03795 12.6667 8.25C12.6667 7.46205 12.5287 6.68181 12.2607 5.95384C11.9927 5.22587 11.5998 4.56442 11.1046 4.00725C10.6093 3.45009 10.0213 3.00812 9.37426 2.70658C8.72717 2.40505 8.03363 2.24985 7.33323 2.24985C6.63283 2.24985 5.93928 2.40505 5.2922 2.70658C4.64511 3.00812 4.05715 3.45009 3.56189 4.00725C2.56167 5.1325 1.99976 6.65866 1.99976 8.25C1.99976 9.84134 2.56167 11.3675 3.56189 12.4928C4.56211 13.618 5.9187 14.2502 7.33323 14.2502C8.74775 14.2502 10.1043 13.618 11.1046 12.4928Z" stroke="black" stroke-linecap="round" stroke-linejoin="round"/>
</svg>
